# xmcd
#
# Track frame offsets: 
#        150
#        35835
#        53237
#        76495
#        99002
#        115755
#        133790
#        164408
#        193878
#        211273
#
# Disc length: 3037 seconds
#
# Revision: 0
# Processed by: cddbd v1.5.2PL0 Copyright (c) Steve Scherf et al.
# Submitted via: ExactAudioCopy v1.0b3
#
DISCID=880bdb0a
DTITLE=Ngoc Son - Pho Dem
DYEAR=1994
DGENRE=
TTITLE0=Neu hai dua minh
TTITLE1=Nguoi xa ve thanh pho
TTITLE2=Pho dem
TTITLE3=Doi mat nguoi xua
TTITLE4=Mua nua dem
TTITLE5=Ke o mien xa
TTITLE6=Ke co don
TTITLE7=Mua Xuan la kho
TTITLE8=Bong co may
TTITLE9=Trom nhin nhau
EXTD=
EXTT0=
EXTT1=
EXTT2=
EXTT3=
EXTT4=
EXTT5=
EXTT6=
EXTT7=
EXTT8=
EXTT9=
PLAYORDER=
